<svg xmlns="http://www.w3.org/2000/svg" width="1280" height="960" viewBox="0 0 1280 960" fill="none">
  <defs>
    <linearGradient id="bg" x1="0" y1="196" x2="0" y2="820" gradientUnits="userSpaceOnUse">
      <stop stop-color="#171A1F"/>
      <stop offset="1" stop-color="#15181D"/>
    </linearGradient>
    <linearGradient id="title" x1="0" y1="140" x2="0" y2="196" gradientUnits="userSpaceOnUse">
      <stop stop-color="#3A3A3A"/>
      <stop offset="1" stop-color="#313131"/>
    </linearGradient>
    <linearGradient id="panel" x1="180" y1="140" x2="1100" y2="820" gradientUnits="userSpaceOnUse">
      <stop stop-color="#151B24" stop-opacity=".92"/>
      <stop offset=".52" stop-color="#0E131A" stop-opacity=".9"/>
      <stop offset="1" stop-color="#0A0E14" stop-opacity=".96"/>
    </linearGradient>
    <filter id="shadow" x="120" y="90" width="1040" height="780" filterUnits="userSpaceOnUse" color-interpolation-filters="sRGB">
      <feDropShadow dx="0" dy="12" stdDeviation="30" flood-color="#000000" flood-opacity=".35"/>
      <feDropShadow dx="0" dy="34" stdDeviation="70" flood-color="#000000" flood-opacity=".22"/>
    </filter>
  </defs>
  <g filter="url(#shadow)">
    <rect x="180" y="140" width="920" height="680" rx="28" fill="url(#panel)"/>
    <rect x="180.5" y="140.5" width="919" height="679" rx="27.5" stroke="#FFFFFF" stroke-opacity=".06"/>
    <rect x="180" y="140" width="920" height="56" rx="28" fill="url(#title)"/>
    <path d="M180 168c0-15.464 12.536-28 28-28h864c15.464 0 28 12.536 28 28v28H180v-28Z" fill="url(#title)"/>
    <circle cx="220" cy="168" r="7.5" fill="#FF5F57"/>
    <circle cx="246" cy="168" r="7.5" fill="#FEBC2E"/>
    <circle cx="272" cy="168" r="7.5" fill="#28C840"/>
    <text x="640" y="173" text-anchor="middle" fill="#ECECEC" font-family="SF Pro Text, -apple-system, BlinkMacSystemFont, sans-serif" font-size="18" font-weight="400">richie — richietan.dev — zsh</text>
    <rect x="180" y="196" width="920" height="624" fill="url(#bg)"/>

    <g font-family="'Hack Nerd Font Mono', 'SFMono-Regular', Menlo, Monaco, Consolas, monospace">
      <g fill="#D98968" font-size="32">
        <text x="208" y="266"> ▐▛███▜▌</text>
        <text x="208" y="298">▝▜█████▛▘</text>
        <text x="208" y="330">  ▘▘ ▝▝  </text>
      </g>

      <text x="316" y="266" fill="#F8F8F8" font-size="56" font-weight="700">Richie Tan</text>
      <text x="316" y="312" fill="#999999" font-size="28" font-weight="400">Software Engineer</text>

      <rect x="180" y="370" width="920" height="2" fill="#888888"/>
      <rect x="180" y="428" width="920" height="2" fill="#888888"/>

      <text x="208" y="409" fill="#F8F8F8" font-size="28" font-weight="600">❯</text>
      <rect x="238" y="380" width="18" height="36" fill="#F8F8F8"/>
      <text x="242" y="409" fill="#171A1F" font-size="28" font-weight="400">A</text>
      <text x="257" y="409" fill="#999999" font-size="28" font-weight="400">sk anything about Richie Tan</text>

      <text x="222" y="482" fill="#999999" font-size="24" font-weight="400">? for shortcuts</text>
      <text x="1026" y="482" fill="#999999" font-size="24" font-weight="400" text-anchor="end">/resume</text>
    </g>
  </g>
</svg>
